<svg width="64" height="64" viewBox="0 0 64 64" fill="none" xmlns="http://www.w3.org/2000/svg">
<path d="M0 23.64C0 12.6762 0 7.19427 3.31716 3.71698C3.44728 3.58059 3.58059 3.44728 3.71698 3.31716C7.19427 0 12.6762 0 23.64 0H40.36C51.3238 0 56.8057 0 60.283 3.31716C60.4194 3.44728 60.5527 3.58059 60.6828 3.71698C64 7.19427 64 12.6762 64 23.64V64H23.64C12.6762 64 7.19427 64 3.71698 60.6828C3.58059 60.5527 3.44728 60.4194 3.31716 60.283C0 56.8057 0 51.3238 0 40.36V23.64Z" fill="#14F800"/>
<g clip-path="url(#clip0_523_804)">
<path d="M16.01 49V48.586H16.076C16.168 48.586 16.248 48.58 16.316 48.568C16.384 48.556 16.438 48.534 16.478 48.502C16.522 48.47 16.544 48.426 16.544 48.37V45.37C16.544 45.31 16.522 45.266 16.478 45.238C16.438 45.206 16.384 45.184 16.316 45.172C16.248 45.16 16.168 45.154 16.076 45.154H16.01V44.74H17.672L18.788 48.244L18.662 48.19L19.784 44.74H21.398V45.154H21.332C21.196 45.154 21.084 45.168 20.996 45.196C20.908 45.224 20.864 45.282 20.864 45.37V48.37C20.864 48.458 20.908 48.516 20.996 48.544C21.084 48.572 21.196 48.586 21.332 48.586H21.398V49H19.664V48.586H19.718C19.766 48.586 19.824 48.584 19.892 48.58C19.96 48.576 20.018 48.57 20.066 48.562C20.118 48.55 20.144 48.538 20.144 48.526V44.866L20.198 44.812L18.788 49.018H18.35L16.934 44.818L17 44.812V48.526C17 48.538 17.022 48.55 17.066 48.562C17.114 48.57 17.17 48.576 17.234 48.58C17.298 48.584 17.35 48.586 17.39 48.586H17.42V49H16.01ZM25.4057 47.308C25.4057 47.684 25.3357 48.004 25.1957 48.268C25.0597 48.532 24.8637 48.734 24.6077 48.874C24.3517 49.01 24.0437 49.078 23.6837 49.078C23.3197 49.078 23.0097 49.01 22.7537 48.874C22.5017 48.734 22.3057 48.532 22.1657 48.268C22.0297 48.004 21.9617 47.684 21.9617 47.308C21.9617 47.028 21.9997 46.78 22.0757 46.564C22.1557 46.344 22.2697 46.158 22.4177 46.006C22.5657 45.854 22.7457 45.738 22.9577 45.658C23.1697 45.578 23.4117 45.538 23.6837 45.538C23.9557 45.538 24.1957 45.578 24.4037 45.658C24.6157 45.738 24.7957 45.854 24.9437 46.006C25.0957 46.158 25.2097 46.344 25.2857 46.564C25.3657 46.78 25.4057 47.028 25.4057 47.308ZM22.6877 47.308C22.6877 47.632 22.7197 47.892 22.7837 48.088C22.8517 48.284 22.9597 48.428 23.1077 48.52C23.2557 48.608 23.4477 48.652 23.6837 48.652C23.9237 48.652 24.1157 48.608 24.2597 48.52C24.4077 48.432 24.5137 48.29 24.5777 48.094C24.6457 47.894 24.6797 47.632 24.6797 47.308C24.6797 47.004 24.6457 46.754 24.5777 46.558C24.5137 46.358 24.4077 46.21 24.2597 46.114C24.1157 46.018 23.9237 45.97 23.6837 45.97C23.4477 45.97 23.2557 46.018 23.1077 46.114C22.9597 46.21 22.8517 46.358 22.7837 46.558C22.7197 46.754 22.6877 47.004 22.6877 47.308ZM27.0915 45.604V48.118C27.0915 48.214 27.1055 48.296 27.1335 48.364C27.1655 48.432 27.2155 48.484 27.2835 48.52C27.3555 48.556 27.4475 48.574 27.5595 48.574C27.6795 48.574 27.7995 48.548 27.9195 48.496C28.0395 48.444 28.1615 48.364 28.2855 48.256C28.4135 48.148 28.5435 48.012 28.6755 47.848L28.6695 48.124C28.5535 48.316 28.4215 48.484 28.2735 48.628C28.1295 48.768 27.9735 48.876 27.8055 48.952C27.6375 49.028 27.4635 49.066 27.2835 49.066C27.0875 49.066 26.9235 49.032 26.7915 48.964C26.6595 48.896 26.5595 48.796 26.4915 48.664C26.4275 48.532 26.3955 48.374 26.3955 48.19V46.258C26.3955 46.178 26.3595 46.12 26.2875 46.084C26.2195 46.048 26.1095 46.024 25.9575 46.012L25.8615 46V45.604H27.0915ZM29.2335 45.604V48.352C29.2335 48.404 29.2495 48.444 29.2815 48.472C29.3175 48.5 29.3695 48.524 29.4375 48.544C29.5055 48.56 29.5835 48.578 29.6715 48.598L29.7315 48.61V49H28.6995L28.5495 48.22L28.5435 48.19V46.258C28.5435 46.178 28.5055 46.12 28.4295 46.084C28.3535 46.044 28.2415 46.018 28.0935 46.006L27.9435 45.994V45.604H29.2335ZM30.182 49V48.664H30.206C30.306 48.664 30.392 48.652 30.464 48.628C30.536 48.6 30.59 48.554 30.626 48.49C30.662 48.426 30.68 48.336 30.68 48.22V46.258C30.68 46.202 30.662 46.16 30.626 46.132C30.594 46.104 30.546 46.082 30.482 46.066C30.418 46.046 30.338 46.028 30.242 46.012L30.182 46V45.604H31.22L31.37 46.354V46.366V48.604C31.37 48.616 31.392 48.628 31.436 48.64C31.48 48.648 31.532 48.654 31.592 48.658C31.652 48.662 31.708 48.664 31.76 48.664H31.79V49H30.182ZM34.034 49H32.432V48.664H32.462C32.51 48.664 32.564 48.662 32.624 48.658C32.688 48.654 32.74 48.648 32.78 48.64C32.824 48.628 32.846 48.616 32.846 48.604V46.48C32.846 46.38 32.83 46.298 32.798 46.234C32.77 46.166 32.72 46.114 32.648 46.078C32.58 46.042 32.486 46.024 32.366 46.024C32.246 46.024 32.124 46.05 32 46.102C31.88 46.154 31.756 46.234 31.628 46.342C31.504 46.446 31.374 46.584 31.238 46.756L31.244 46.474C31.36 46.282 31.492 46.116 31.64 45.976C31.788 45.836 31.946 45.728 32.114 45.652C32.282 45.572 32.46 45.532 32.648 45.532C32.848 45.532 33.012 45.566 33.14 45.634C33.272 45.702 33.372 45.802 33.44 45.934C33.508 46.062 33.542 46.22 33.542 46.408V48.22C33.542 48.336 33.56 48.426 33.596 48.49C33.632 48.554 33.684 48.6 33.752 48.628C33.824 48.652 33.91 48.664 34.01 48.664H34.034V49ZM34.3329 46.024V45.634H34.4289C34.5649 45.634 34.6789 45.624 34.7709 45.604C34.8669 45.584 34.9389 45.54 34.9869 45.472C35.0349 45.404 35.0589 45.302 35.0589 45.166L35.5209 45.604H36.8589V46.024H34.3329ZM35.7129 48.064C35.7129 48.216 35.7369 48.332 35.7849 48.412C35.8329 48.488 35.9029 48.54 35.9949 48.568C36.0909 48.592 36.2069 48.604 36.3429 48.604C36.4589 48.604 36.5669 48.6 36.6669 48.592C36.7669 48.58 36.8269 48.572 36.8469 48.568V49C36.7949 49.012 36.7309 49.024 36.6549 49.036C36.5829 49.048 36.5049 49.056 36.4209 49.06C36.3409 49.068 36.2609 49.072 36.1809 49.072C35.9649 49.072 35.7689 49.048 35.5929 49C35.4169 48.948 35.2769 48.852 35.1729 48.712C35.0689 48.572 35.0169 48.366 35.0169 48.094V45.688L35.0589 45.634V44.608H35.7129V48.064ZM39.6043 46.924V47.29C39.3363 47.334 39.1123 47.38 38.9323 47.428C38.7523 47.472 38.6083 47.52 38.5003 47.572C38.3923 47.624 38.3103 47.68 38.2543 47.74C38.1983 47.796 38.1603 47.86 38.1403 47.932C38.1243 48 38.1163 48.074 38.1163 48.154C38.1163 48.282 38.1363 48.382 38.1763 48.454C38.2203 48.526 38.2823 48.58 38.3623 48.616C38.4463 48.648 38.5423 48.664 38.6503 48.664C38.7543 48.664 38.8543 48.642 38.9503 48.598C39.0463 48.55 39.1463 48.474 39.2503 48.37C39.3583 48.266 39.4743 48.126 39.5983 47.95L39.6283 48.202C39.5283 48.39 39.4223 48.55 39.3103 48.682C39.1983 48.81 39.0743 48.908 38.9383 48.976C38.8023 49.04 38.6463 49.072 38.4703 49.072C38.2503 49.072 38.0623 49.04 37.9063 48.976C37.7543 48.912 37.6383 48.814 37.5583 48.682C37.4823 48.546 37.4443 48.378 37.4443 48.178C37.4443 48.006 37.4763 47.858 37.5403 47.734C37.6083 47.606 37.7223 47.494 37.8823 47.398C38.0463 47.302 38.2683 47.216 38.5483 47.14C38.8283 47.06 39.1803 46.988 39.6043 46.924ZM39.6943 49L39.5503 48.262L39.5443 48.226V46.468C39.5443 46.352 39.5283 46.258 39.4963 46.186C39.4683 46.11 39.4083 46.054 39.3163 46.018C39.2243 45.978 39.0863 45.958 38.9023 45.958C38.6383 45.958 38.4223 45.984 38.2543 46.036C38.0863 46.084 37.9703 46.128 37.9063 46.168C37.9023 46.152 37.9063 46.13 37.9183 46.102C37.9343 46.074 37.9563 46.048 37.9843 46.024C38.0163 45.996 38.0543 45.974 38.0983 45.958C38.1463 45.938 38.2003 45.928 38.2603 45.928V46.702H37.6183V45.85C37.6783 45.81 37.7663 45.768 37.8823 45.724C38.0023 45.676 38.1503 45.634 38.3263 45.598C38.5023 45.558 38.7063 45.538 38.9383 45.538C39.1383 45.538 39.3183 45.556 39.4783 45.592C39.6383 45.628 39.7743 45.682 39.8863 45.754C39.9983 45.826 40.0843 45.92 40.1443 46.036C40.2043 46.148 40.2343 46.284 40.2343 46.444V48.352C40.2343 48.404 40.2503 48.444 40.2823 48.472C40.3143 48.5 40.3623 48.524 40.4263 48.544C40.4943 48.56 40.5763 48.578 40.6723 48.598L40.7323 48.61V49H39.6943ZM41.9367 45.028C41.7887 45.028 41.6707 44.992 41.5827 44.92C41.4987 44.848 41.4567 44.734 41.4567 44.578C41.4567 44.43 41.4987 44.32 41.5827 44.248C41.6707 44.176 41.7887 44.14 41.9367 44.14C42.0767 44.14 42.1907 44.176 42.2787 44.248C42.3667 44.32 42.4107 44.43 42.4107 44.578C42.4107 44.734 42.3667 44.848 42.2787 44.92C42.1907 44.992 42.0767 45.028 41.9367 45.028ZM42.3327 45.604V48.268C42.3327 48.424 42.3727 48.53 42.4527 48.586C42.5367 48.638 42.6547 48.664 42.8067 48.664H42.8367V49H41.1507V48.664H41.1807C41.3327 48.664 41.4487 48.638 41.5287 48.586C41.6087 48.53 41.6487 48.424 41.6487 48.268V46.258C41.6487 46.178 41.6127 46.124 41.5407 46.096C41.4687 46.068 41.3587 46.04 41.2107 46.012L41.1507 46V45.604H42.3327ZM43.3011 49V48.664H43.3251C43.4251 48.664 43.5111 48.652 43.5831 48.628C43.6551 48.6 43.7091 48.554 43.7451 48.49C43.7811 48.426 43.7991 48.336 43.7991 48.22V46.258C43.7991 46.202 43.7811 46.16 43.7451 46.132C43.7131 46.104 43.6651 46.082 43.6011 46.066C43.5371 46.046 43.4571 46.028 43.3611 46.012L43.3011 46V45.604H44.3391L44.4891 46.354V46.366V48.604C44.4891 48.616 44.5111 48.628 44.5551 48.64C44.5991 48.648 44.6511 48.654 44.7111 48.658C44.7711 48.662 44.8271 48.664 44.8791 48.664H44.9091V49H43.3011ZM47.1531 49H45.5511V48.664H45.5811C45.6291 48.664 45.6831 48.662 45.7431 48.658C45.8071 48.654 45.8591 48.648 45.8991 48.64C45.9431 48.628 45.9651 48.616 45.9651 48.604V46.48C45.9651 46.38 45.9491 46.298 45.9171 46.234C45.8891 46.166 45.8391 46.114 45.7671 46.078C45.6991 46.042 45.6051 46.024 45.4851 46.024C45.3651 46.024 45.2431 46.05 45.1191 46.102C44.9991 46.154 44.8751 46.234 44.7471 46.342C44.6231 46.446 44.4931 46.584 44.3571 46.756L44.3631 46.474C44.4791 46.282 44.6111 46.116 44.7591 45.976C44.9071 45.836 45.0651 45.728 45.2331 45.652C45.4011 45.572 45.5791 45.532 45.7671 45.532C45.9671 45.532 46.1311 45.566 46.2591 45.634C46.3911 45.702 46.4911 45.802 46.5591 45.934C46.6271 46.062 46.6611 46.22 46.6611 46.408V48.22C46.6611 48.336 46.6791 48.426 46.7151 48.49C46.7511 48.554 46.8031 48.6 46.8711 48.628C46.9431 48.652 47.0291 48.664 47.1291 48.664H47.1531V49ZM15.3564 54.154V53.74H17.3364C17.6924 53.74 18.0104 53.782 18.2904 53.866C18.5704 53.95 18.8084 54.08 19.0044 54.256C19.2044 54.428 19.3544 54.646 19.4544 54.91C19.5584 55.174 19.6104 55.486 19.6104 55.846C19.6104 56.202 19.5584 56.516 19.4544 56.788C19.3544 57.056 19.2044 57.28 19.0044 57.46C18.8084 57.64 18.5704 57.776 18.2904 57.868C18.0104 57.956 17.6924 58 17.3364 58H15.3564V57.586H15.4224C15.5584 57.586 15.6704 57.572 15.7584 57.544C15.8464 57.516 15.8904 57.458 15.8904 57.37V54.37C15.8904 54.282 15.8464 54.224 15.7584 54.196C15.6704 54.168 15.5584 54.154 15.4224 54.154H15.3564ZM17.2944 54.154H16.6164V57.586H17.2944C17.5584 57.586 17.7864 57.552 17.9784 57.484C18.1744 57.416 18.3344 57.312 18.4584 57.172C18.5864 57.028 18.6804 56.846 18.7404 56.626C18.8044 56.406 18.8364 56.146 18.8364 55.846C18.8364 55.546 18.8044 55.288 18.7404 55.072C18.6804 54.856 18.5864 54.682 18.4584 54.55C18.3344 54.414 18.1744 54.314 17.9784 54.25C17.7864 54.186 17.5584 54.154 17.2944 54.154ZM23.0674 54.916L22.1254 58.06H21.3574L20.6614 55.342C20.6374 55.25 20.6014 55.18 20.5534 55.132C20.5094 55.084 20.4554 55.052 20.3914 55.036C20.3274 55.016 20.2494 55.006 20.1574 55.006H20.1154V54.604H21.7594V55H21.7114C21.6274 55 21.5514 55.002 21.4834 55.006C21.4154 55.006 21.3594 55.01 21.3154 55.018C21.2754 55.022 21.2554 55.032 21.2554 55.048L21.9454 57.838L21.8254 57.658L22.7194 54.604H23.4334L24.3094 57.838L24.2134 57.658L24.8734 55.132C24.8734 55.108 24.8514 55.086 24.8074 55.066C24.7674 55.046 24.7154 55.03 24.6514 55.018C24.5874 55.006 24.5154 55 24.4354 55H24.3934V54.604H25.8214V55.006H25.7734C25.6854 55.006 25.6094 55.016 25.5454 55.036C25.4814 55.056 25.4274 55.092 25.3834 55.144C25.3434 55.192 25.3094 55.264 25.2814 55.36L24.5134 58.06H23.7454L22.8874 54.97L23.0674 54.916ZM26.8324 56.338C26.8324 56.602 26.8584 56.82 26.9104 56.992C26.9664 57.16 27.0424 57.292 27.1384 57.388C27.2384 57.484 27.3544 57.552 27.4864 57.592C27.6224 57.628 27.7704 57.646 27.9304 57.646C28.0984 57.646 28.2444 57.622 28.3684 57.574C28.4964 57.526 28.6064 57.458 28.6984 57.37C28.7944 57.282 28.8784 57.182 28.9504 57.07L29.2864 57.31C29.2064 57.466 29.0964 57.604 28.9564 57.724C28.8204 57.84 28.6624 57.928 28.4824 57.988C28.3024 58.048 28.1044 58.078 27.8884 58.078C27.5484 58.078 27.2464 58.014 26.9824 57.886C26.7224 57.758 26.5164 57.564 26.3644 57.304C26.2164 57.044 26.1424 56.722 26.1424 56.338C26.1424 55.974 26.2084 55.658 26.3404 55.39C26.4764 55.122 26.6664 54.914 26.9104 54.766C27.1584 54.614 27.4484 54.538 27.7804 54.538C28.0404 54.538 28.2624 54.58 28.4464 54.664C28.6344 54.744 28.7884 54.866 28.9084 55.03C29.0324 55.19 29.1244 55.39 29.1844 55.63C29.2444 55.87 29.2764 56.152 29.2804 56.476H26.6044V56.098H28.7524L28.6144 56.236C28.6024 55.984 28.5804 55.776 28.5484 55.612C28.5164 55.444 28.4684 55.312 28.4044 55.216C28.3444 55.12 28.2624 55.054 28.1584 55.018C28.0584 54.978 27.9324 54.958 27.7804 54.958C27.6324 54.958 27.4984 54.982 27.3784 55.03C27.2624 55.078 27.1644 55.156 27.0844 55.264C27.0044 55.368 26.9424 55.51 26.8984 55.69C26.8544 55.866 26.8324 56.082 26.8324 56.338ZM31.0106 53.32V57.268C31.0106 57.424 31.0506 57.53 31.1306 57.586C31.2106 57.638 31.3266 57.664 31.4786 57.664H31.5086V58H29.8226V57.664H29.8526C30.0046 57.664 30.1206 57.638 30.2006 57.586C30.2846 57.53 30.3266 57.424 30.3266 57.268V53.968C30.3266 53.912 30.3086 53.872 30.2726 53.848C30.2406 53.82 30.1906 53.796 30.1226 53.776C30.0586 53.756 29.9786 53.738 29.8826 53.722L29.8226 53.71V53.32H31.0106ZM33.202 53.32V57.268C33.202 57.424 33.242 57.53 33.322 57.586C33.402 57.638 33.518 57.664 33.67 57.664H33.7V58H32.014V57.664H32.044C32.196 57.664 32.312 57.638 32.392 57.586C32.476 57.53 32.518 57.424 32.518 57.268V53.968C32.518 53.912 32.5 53.872 32.464 53.848C32.432 53.82 32.382 53.796 32.314 53.776C32.25 53.756 32.17 53.738 32.074 53.722L32.014 53.71V53.32H33.202ZM34.9494 54.028C34.8014 54.028 34.6834 53.992 34.5954 53.92C34.5114 53.848 34.4694 53.734 34.4694 53.578C34.4694 53.43 34.5114 53.32 34.5954 53.248C34.6834 53.176 34.8014 53.14 34.9494 53.14C35.0894 53.14 35.2034 53.176 35.2914 53.248C35.3794 53.32 35.4234 53.43 35.4234 53.578C35.4234 53.734 35.3794 53.848 35.2914 53.92C35.2034 53.992 35.0894 54.028 34.9494 54.028ZM35.3454 54.604V57.268C35.3454 57.424 35.3854 57.53 35.4654 57.586C35.5494 57.638 35.6674 57.664 35.8194 57.664H35.8494V58H34.1634V57.664H34.1934C34.3454 57.664 34.4614 57.638 34.5414 57.586C34.6214 57.53 34.6614 57.424 34.6614 57.268V55.258C34.6614 55.178 34.6254 55.124 34.5534 55.096C34.4814 55.068 34.3714 55.04 34.2234 55.012L34.1634 55V54.604H35.3454ZM36.3138 58V57.664H36.3378C36.4378 57.664 36.5238 57.652 36.5958 57.628C36.6678 57.6 36.7218 57.554 36.7578 57.49C36.7938 57.426 36.8118 57.336 36.8118 57.22V55.258C36.8118 55.202 36.7938 55.16 36.7578 55.132C36.7258 55.104 36.6778 55.082 36.6138 55.066C36.5498 55.046 36.4698 55.028 36.3738 55.012L36.3138 55V54.604H37.3518L37.5018 55.354V55.366V57.604C37.5018 57.616 37.5238 57.628 37.5678 57.64C37.6118 57.648 37.6638 57.654 37.7238 57.658C37.7838 57.662 37.8398 57.664 37.8918 57.664H37.9218V58H36.3138ZM40.1658 58H38.5638V57.664H38.5938C38.6418 57.664 38.6958 57.662 38.7558 57.658C38.8198 57.654 38.8718 57.648 38.9118 57.64C38.9558 57.628 38.9778 57.616 38.9778 57.604V55.48C38.9778 55.38 38.9618 55.298 38.9298 55.234C38.9018 55.166 38.8518 55.114 38.7798 55.078C38.7118 55.042 38.6178 55.024 38.4978 55.024C38.3778 55.024 38.2558 55.05 38.1318 55.102C38.0118 55.154 37.8878 55.234 37.7598 55.342C37.6358 55.446 37.5058 55.584 37.3698 55.756L37.3758 55.474C37.4918 55.282 37.6238 55.116 37.7718 54.976C37.9198 54.836 38.0778 54.728 38.2458 54.652C38.4138 54.572 38.5918 54.532 38.7798 54.532C38.9798 54.532 39.1438 54.566 39.2718 54.634C39.4038 54.702 39.5038 54.802 39.5718 54.934C39.6398 55.062 39.6738 55.22 39.6738 55.408V57.22C39.6738 57.336 39.6918 57.426 39.7278 57.49C39.7638 57.554 39.8158 57.6 39.8838 57.628C39.9558 57.652 40.0418 57.664 40.1418 57.664H40.1658V58ZM44.4847 54.982C44.3007 54.974 44.1427 54.97 44.0107 54.97C43.8787 54.97 43.7647 54.976 43.6687 54.988C43.5727 54.996 43.4807 55.008 43.3927 55.024L43.2847 55.078C43.3367 54.938 43.3967 54.816 43.4647 54.712C43.5327 54.608 43.6127 54.524 43.7047 54.46C43.8007 54.396 43.9107 54.352 44.0347 54.328C44.1627 54.304 44.3127 54.298 44.4847 54.31V54.982ZM42.3247 56.932C42.0447 56.932 41.7987 56.884 41.5867 56.788C41.3787 56.688 41.2167 56.55 41.1007 56.374C40.9887 56.194 40.9327 55.984 40.9327 55.744C40.9327 55.504 40.9907 55.294 41.1067 55.114C41.2227 54.93 41.3847 54.788 41.5927 54.688C41.8047 54.588 42.0487 54.538 42.3247 54.538C42.6047 54.538 42.8487 54.588 43.0567 54.688C43.2687 54.788 43.4327 54.93 43.5487 55.114C43.6647 55.294 43.7227 55.504 43.7227 55.744C43.7227 55.984 43.6647 56.194 43.5487 56.374C43.4327 56.55 43.2707 56.688 43.0627 56.788C42.8547 56.884 42.6087 56.932 42.3247 56.932ZM42.3247 56.548C42.4927 56.548 42.6287 56.52 42.7327 56.464C42.8407 56.404 42.9187 56.314 42.9667 56.194C43.0187 56.074 43.0447 55.924 43.0447 55.744C43.0447 55.56 43.0187 55.408 42.9667 55.288C42.9187 55.168 42.8407 55.078 42.7327 55.018C42.6287 54.958 42.4927 54.928 42.3247 54.928C42.1607 54.928 42.0247 54.958 41.9167 55.018C41.8127 55.078 41.7347 55.168 41.6827 55.288C41.6347 55.408 41.6107 55.56 41.6107 55.744C41.6107 55.924 41.6347 56.074 41.6827 56.194C41.7347 56.314 41.8127 56.404 41.9167 56.464C42.0247 56.52 42.1607 56.548 42.3247 56.548ZM41.7667 59.518C41.5107 59.518 41.2927 59.494 41.1127 59.446C40.9327 59.398 40.7947 59.322 40.6987 59.218C40.6027 59.118 40.5547 58.988 40.5547 58.828C40.5547 58.692 40.5827 58.576 40.6387 58.48C40.6987 58.384 40.7887 58.296 40.9087 58.216C41.0327 58.136 41.1907 58.054 41.3827 57.97L41.5207 58.048C41.4207 58.132 41.3427 58.208 41.2867 58.276C41.2347 58.348 41.1987 58.418 41.1787 58.486C41.1587 58.554 41.1487 58.626 41.1487 58.702C41.1487 58.794 41.1687 58.87 41.2087 58.93C41.2527 58.994 41.3247 59.042 41.4247 59.074C41.5287 59.11 41.6747 59.128 41.8627 59.128H42.7507C42.9587 59.128 43.1247 59.106 43.2487 59.062C43.3767 59.022 43.4707 58.958 43.5307 58.87C43.5947 58.782 43.6267 58.668 43.6267 58.528C43.6267 58.416 43.5947 58.328 43.5307 58.264C43.4667 58.204 43.3607 58.174 43.2127 58.174H41.6287L41.6707 58.15C41.4747 58.146 41.3087 58.118 41.1727 58.066C41.0367 58.018 40.9347 57.948 40.8667 57.856C40.7987 57.76 40.7647 57.646 40.7647 57.514C40.7647 57.39 40.7967 57.276 40.8607 57.172C40.9247 57.068 41.0147 56.974 41.1307 56.89C41.2507 56.802 41.3867 56.722 41.5387 56.65L41.7007 56.74C41.6127 56.816 41.5427 56.884 41.4907 56.944C41.4427 57.004 41.4067 57.06 41.3827 57.112C41.3587 57.16 41.3467 57.214 41.3467 57.274C41.3467 57.37 41.3787 57.44 41.4427 57.484C41.5067 57.528 41.6067 57.55 41.7427 57.55H43.2487C43.4607 57.55 43.6387 57.58 43.7827 57.64C43.9307 57.7 44.0427 57.792 44.1187 57.916C44.1987 58.04 44.2387 58.202 44.2387 58.402C44.2387 58.654 44.1747 58.862 44.0467 59.026C43.9187 59.19 43.7427 59.312 43.5187 59.392C43.2987 59.476 43.0487 59.518 42.7687 59.518H41.7667ZM47.0111 57.118C47.0111 57.014 46.9871 56.928 46.9391 56.86C46.8911 56.792 46.8251 56.738 46.7411 56.698C46.6571 56.658 46.5611 56.626 46.4531 56.602C46.3491 56.574 46.2411 56.548 46.1291 56.524C45.9851 56.496 45.8451 56.462 45.7091 56.422C45.5731 56.378 45.4491 56.322 45.3371 56.254C45.2291 56.182 45.1431 56.088 45.0791 55.972C45.0151 55.852 44.9831 55.704 44.9831 55.528C44.9831 55.316 45.0351 55.138 45.1391 54.994C45.2431 54.846 45.3951 54.734 45.5951 54.658C45.7951 54.578 46.0331 54.538 46.3091 54.538C46.5291 54.538 46.7191 54.548 46.8791 54.568C47.0431 54.588 47.1771 54.612 47.2811 54.64C47.3891 54.664 47.4671 54.684 47.5151 54.7V55.552H46.9031V54.886C46.9471 54.882 46.9851 54.886 47.0171 54.898C47.0491 54.906 47.0731 54.92 47.0891 54.94C47.1091 54.96 47.1251 54.988 47.1371 55.024C47.1491 55.056 47.1551 55.092 47.1551 55.132C47.1031 55.092 47.0351 55.058 46.9511 55.03C46.8671 55.002 46.7711 54.982 46.6631 54.97C46.5551 54.954 46.4371 54.946 46.3091 54.946C46.0611 54.946 45.8811 54.986 45.7691 55.066C45.6611 55.142 45.6071 55.258 45.6071 55.414C45.6071 55.514 45.6291 55.596 45.6731 55.66C45.7171 55.724 45.7791 55.776 45.8591 55.816C45.9431 55.856 46.0391 55.89 46.1471 55.918C46.2551 55.942 46.3731 55.968 46.5011 55.996C46.6411 56.024 46.7791 56.06 46.9151 56.104C47.0551 56.144 47.1811 56.202 47.2931 56.278C47.4051 56.35 47.4951 56.446 47.5631 56.566C47.6311 56.682 47.6651 56.83 47.6651 57.01C47.6651 57.23 47.6131 57.422 47.5091 57.586C47.4051 57.746 47.2471 57.868 47.0351 57.952C46.8231 58.036 46.5551 58.078 46.2311 58.078C46.0151 58.078 45.8211 58.066 45.6491 58.042C45.4811 58.018 45.3351 57.986 45.2111 57.946C45.0871 57.906 44.9871 57.864 44.9111 57.82V56.932H45.5351V57.808C45.4671 57.788 45.4131 57.764 45.3731 57.736C45.3371 57.704 45.3111 57.672 45.2951 57.64C45.2791 57.608 45.2711 57.578 45.2711 57.55C45.2711 57.518 45.2771 57.492 45.2891 57.472C45.3411 57.496 45.4131 57.524 45.5051 57.556C45.5971 57.588 45.7051 57.616 45.8291 57.64C45.9531 57.664 46.0891 57.676 46.2371 57.676C46.4211 57.676 46.5691 57.658 46.6811 57.622C46.7971 57.582 46.8811 57.522 46.9331 57.442C46.9851 57.358 47.0111 57.25 47.0111 57.118Z" fill="#F7FAD5"/>
<path d="M21.4439 3L18.9764 11.4352L21.6148 15.2111L23.1238 12.7331L26.6828 15.3375L28.3437 10.6597L21.4439 3ZM37.5498 6.68321L34.4937 10.7609L35.5092 12.9101L37.5877 11.0812L39.3055 14.6885L40.2831 12.8596L37.5498 6.68321ZM29.6345 12.0926L27.556 17.9335L23.6363 15.0762L21.7287 18.2284L18.3879 13.4495L10 42.0556H22.0039C26.3317 40.6227 34.8449 37.2766 35.0252 33.0962C35.1866 29.0674 24.6898 29.4382 24.5095 25.4095C24.3671 22.1139 32.5291 18.5403 32.5291 18.5403C32.5291 18.5403 27.3946 22.1898 28.0305 24.5245C29.2548 28.9915 39.9509 26.8507 41.6213 31.2082C42.8551 34.4278 38.4419 39.999 36.6671 42.0556H53.2L41.1373 14.7981L39.2296 18.397L36.9993 13.7277L34.9018 15.5735L33.3548 12.278L31.7414 14.4272L29.6345 12.0926Z" fill="#F7FAD5"/>
</g>
<defs>
<clipPath id="clip0_523_804">
<rect width="54" height="57" fill="white" transform="translate(5 3)"/>
</clipPath>
</defs>
</svg>
