<svg width="60" height="55" viewBox="0 0 60 55" fill="none" xmlns="http://www.w3.org/2000/svg">
<path d="M0.5 24.4173C0.5 13.4535 0.5 7.97161 3.81716 4.49433C3.94728 4.35793 4.08059 4.22462 4.21698 4.09451C7.69427 0.777344 13.1762 0.777344 24.14 0.777344H35.86C46.8238 0.777344 52.3057 0.777344 55.783 4.09451C55.9194 4.22462 56.0527 4.35793 56.1828 4.49433C59.5 7.97161 59.5 13.4535 59.5 24.4173V54.2236H24.14C13.1762 54.2236 7.69427 54.2236 4.21698 50.9065C4.08059 50.7764 3.94728 50.643 3.81716 50.5066C0.5 47.0294 0.5 41.5475 0.5 30.5836V24.4173Z" fill="#7D7E72"/>
<g clip-path="url(#clip0_635_22)">
<path d="M14.9084 42.0703V41.6563H14.9744C15.0664 41.6563 15.1464 41.6503 15.2144 41.6383C15.2824 41.6263 15.3364 41.6043 15.3764 41.5723C15.4204 41.5403 15.4424 41.4963 15.4424 41.4403V38.4403C15.4424 38.3803 15.4204 38.3363 15.3764 38.3083C15.3364 38.2763 15.2824 38.2543 15.2144 38.2423C15.1464 38.2303 15.0664 38.2243 14.9744 38.2243H14.9084V37.8103H16.5704L17.6864 41.3143L17.5604 41.2603L18.6824 37.8103H20.2964V38.2243H20.2304C20.0944 38.2243 19.9824 38.2383 19.8944 38.2663C19.8064 38.2943 19.7624 38.3523 19.7624 38.4403V41.4403C19.7624 41.5283 19.8064 41.5863 19.8944 41.6143C19.9824 41.6423 20.0944 41.6563 20.2304 41.6563H20.2964V42.0703H18.5624V41.6563H18.6164C18.6644 41.6563 18.7224 41.6543 18.7904 41.6503C18.8584 41.6463 18.9164 41.6403 18.9644 41.6323C19.0164 41.6203 19.0424 41.6083 19.0424 41.5963V37.9363L19.0964 37.8823L17.6864 42.0883H17.2484L15.8324 37.8883L15.8984 37.8823V41.5963C15.8984 41.6083 15.9204 41.6203 15.9644 41.6323C16.0124 41.6403 16.0684 41.6463 16.1324 41.6503C16.1964 41.6543 16.2484 41.6563 16.2884 41.6563H16.3184V42.0703H14.9084ZM24.3041 40.3783C24.3041 40.7543 24.2341 41.0743 24.0941 41.3383C23.9581 41.6023 23.7621 41.8043 23.5061 41.9443C23.2501 42.0803 22.9421 42.1483 22.5821 42.1483C22.2181 42.1483 21.9081 42.0803 21.6521 41.9443C21.4001 41.8043 21.2041 41.6023 21.0641 41.3383C20.9281 41.0743 20.8601 40.7543 20.8601 40.3783C20.8601 40.0983 20.8981 39.8503 20.9741 39.6343C21.0541 39.4143 21.1681 39.2283 21.3161 39.0763C21.4641 38.9243 21.6441 38.8083 21.8561 38.7283C22.0681 38.6483 22.3101 38.6083 22.5821 38.6083C22.8541 38.6083 23.0941 38.6483 23.3021 38.7283C23.5141 38.8083 23.6941 38.9243 23.8421 39.0763C23.9941 39.2283 24.1081 39.4143 24.1841 39.6343C24.2641 39.8503 24.3041 40.0983 24.3041 40.3783ZM21.5861 40.3783C21.5861 40.7023 21.6181 40.9623 21.6821 41.1583C21.7501 41.3543 21.8581 41.4983 22.0061 41.5903C22.1541 41.6783 22.3461 41.7223 22.5821 41.7223C22.8221 41.7223 23.0141 41.6783 23.1581 41.5903C23.3061 41.5023 23.4121 41.3603 23.4761 41.1643C23.5441 40.9643 23.5781 40.7023 23.5781 40.3783C23.5781 40.0743 23.5441 39.8243 23.4761 39.6283C23.4121 39.4283 23.3061 39.2803 23.1581 39.1843C23.0141 39.0883 22.8221 39.0403 22.5821 39.0403C22.3461 39.0403 22.1541 39.0883 22.0061 39.1843C21.8581 39.2803 21.7501 39.4283 21.6821 39.6283C21.6181 39.8243 21.5861 40.0743 21.5861 40.3783ZM25.9899 38.6743V41.1883C25.9899 41.2843 26.0039 41.3663 26.0319 41.4343C26.0639 41.5023 26.1139 41.5543 26.1819 41.5903C26.2539 41.6263 26.3459 41.6443 26.4579 41.6443C26.5779 41.6443 26.6979 41.6183 26.8179 41.5663C26.9379 41.5143 27.0599 41.4343 27.1839 41.3263C27.3119 41.2183 27.4419 41.0823 27.5739 40.9183L27.5679 41.1943C27.4519 41.3863 27.3199 41.5543 27.1719 41.6983C27.0279 41.8383 26.8719 41.9463 26.7039 42.0223C26.5359 42.0983 26.3619 42.1363 26.1819 42.1363C25.9859 42.1363 25.8219 42.1023 25.6899 42.0343C25.5579 41.9663 25.4579 41.8663 25.3899 41.7343C25.3259 41.6023 25.2939 41.4443 25.2939 41.2603V39.3283C25.2939 39.2483 25.2579 39.1903 25.1859 39.1543C25.1179 39.1183 25.0079 39.0943 24.8559 39.0823L24.7599 39.0703V38.6743H25.9899ZM28.1319 38.6743V41.4223C28.1319 41.4743 28.1479 41.5143 28.1799 41.5423C28.2159 41.5703 28.2679 41.5943 28.3359 41.6143C28.4039 41.6303 28.4819 41.6483 28.5699 41.6683L28.6299 41.6803V42.0703H27.5979L27.4479 41.2903L27.4419 41.2603V39.3283C27.4419 39.2483 27.4039 39.1903 27.3279 39.1543C27.2519 39.1143 27.1399 39.0883 26.9919 39.0763L26.8419 39.0643V38.6743H28.1319ZM29.0804 42.0703V41.7343H29.1044C29.2044 41.7343 29.2904 41.7223 29.3624 41.6983C29.4344 41.6703 29.4884 41.6243 29.5244 41.5603C29.5604 41.4963 29.5784 41.4063 29.5784 41.2903V39.3283C29.5784 39.2723 29.5604 39.2303 29.5244 39.2023C29.4924 39.1743 29.4444 39.1523 29.3804 39.1363C29.3164 39.1163 29.2364 39.0983 29.1404 39.0823L29.0804 39.0703V38.6743H30.1184L30.2684 39.4243V39.4363V41.6743C30.2684 41.6863 30.2904 41.6983 30.3344 41.7103C30.3784 41.7183 30.4304 41.7243 30.4904 41.7283C30.5504 41.7323 30.6064 41.7343 30.6584 41.7343H30.6884V42.0703H29.0804ZM32.9324 42.0703H31.3304V41.7343H31.3604C31.4084 41.7343 31.4624 41.7323 31.5224 41.7283C31.5864 41.7243 31.6384 41.7183 31.6784 41.7103C31.7224 41.6983 31.7444 41.6863 31.7444 41.6743V39.5503C31.7444 39.4503 31.7284 39.3683 31.6964 39.3043C31.6684 39.2363 31.6184 39.1843 31.5464 39.1483C31.4784 39.1123 31.3844 39.0943 31.2644 39.0943C31.1444 39.0943 31.0224 39.1203 30.8984 39.1723C30.7784 39.2243 30.6544 39.3043 30.5264 39.4123C30.4024 39.5163 30.2724 39.6543 30.1364 39.8263L30.1424 39.5443C30.2584 39.3523 30.3904 39.1863 30.5384 39.0463C30.6864 38.9063 30.8444 38.7983 31.0124 38.7223C31.1804 38.6423 31.3584 38.6023 31.5464 38.6023C31.7464 38.6023 31.9104 38.6363 32.0384 38.7043C32.1704 38.7723 32.2704 38.8723 32.3384 39.0043C32.4064 39.1323 32.4404 39.2903 32.4404 39.4783V41.2903C32.4404 41.4063 32.4584 41.4963 32.4944 41.5603C32.5304 41.6243 32.5824 41.6703 32.6504 41.6983C32.7224 41.7223 32.8084 41.7343 32.9084 41.7343H32.9324V42.0703ZM33.2313 39.0943V38.7043H33.3273C33.4633 38.7043 33.5773 38.6943 33.6693 38.6743C33.7653 38.6543 33.8373 38.6103 33.8853 38.5423C33.9333 38.4743 33.9573 38.3723 33.9573 38.2363L34.4193 38.6743H35.7573V39.0943H33.2313ZM34.6113 41.1343C34.6113 41.2863 34.6353 41.4023 34.6833 41.4823C34.7313 41.5583 34.8013 41.6103 34.8933 41.6383C34.9893 41.6623 35.1053 41.6743 35.2413 41.6743C35.3573 41.6743 35.4653 41.6703 35.5653 41.6623C35.6653 41.6503 35.7253 41.6423 35.7453 41.6383V42.0703C35.6933 42.0823 35.6293 42.0943 35.5533 42.1063C35.4813 42.1183 35.4033 42.1263 35.3193 42.1303C35.2393 42.1383 35.1593 42.1423 35.0793 42.1423C34.8633 42.1423 34.6673 42.1183 34.4913 42.0703C34.3153 42.0183 34.1753 41.9223 34.0713 41.7823C33.9673 41.6423 33.9153 41.4363 33.9153 41.1643V38.7583L33.9573 38.7043V37.6783H34.6113V41.1343ZM38.5027 39.9943V40.3603C38.2347 40.4043 38.0107 40.4503 37.8307 40.4983C37.6507 40.5423 37.5067 40.5903 37.3987 40.6423C37.2907 40.6943 37.2087 40.7503 37.1527 40.8103C37.0967 40.8663 37.0587 40.9303 37.0387 41.0023C37.0227 41.0703 37.0147 41.1443 37.0147 41.2243C37.0147 41.3523 37.0347 41.4523 37.0747 41.5243C37.1187 41.5963 37.1807 41.6503 37.2607 41.6863C37.3447 41.7183 37.4407 41.7343 37.5487 41.7343C37.6527 41.7343 37.7527 41.7123 37.8487 41.6683C37.9447 41.6203 38.0447 41.5443 38.1487 41.4403C38.2567 41.3363 38.3727 41.1963 38.4967 41.0203L38.5267 41.2723C38.4267 41.4603 38.3207 41.6203 38.2087 41.7523C38.0967 41.8803 37.9727 41.9783 37.8367 42.0463C37.7007 42.1103 37.5447 42.1423 37.3687 42.1423C37.1487 42.1423 36.9607 42.1103 36.8047 42.0463C36.6527 41.9823 36.5367 41.8843 36.4567 41.7523C36.3807 41.6163 36.3427 41.4483 36.3427 41.2483C36.3427 41.0763 36.3747 40.9283 36.4387 40.8043C36.5067 40.6763 36.6207 40.5643 36.7807 40.4683C36.9447 40.3723 37.1667 40.2863 37.4467 40.2103C37.7267 40.1303 38.0787 40.0583 38.5027 39.9943ZM38.5927 42.0703L38.4487 41.3323L38.4427 41.2963V39.5383C38.4427 39.4223 38.4267 39.3283 38.3947 39.2563C38.3667 39.1803 38.3067 39.1243 38.2147 39.0883C38.1227 39.0483 37.9847 39.0283 37.8007 39.0283C37.5367 39.0283 37.3207 39.0543 37.1527 39.1063C36.9847 39.1543 36.8687 39.1983 36.8047 39.2383C36.8007 39.2223 36.8047 39.2003 36.8167 39.1723C36.8327 39.1443 36.8547 39.1183 36.8827 39.0943C36.9147 39.0663 36.9527 39.0443 36.9967 39.0283C37.0447 39.0083 37.0987 38.9983 37.1587 38.9983V39.7723H36.5167V38.9203C36.5767 38.8803 36.6647 38.8383 36.7807 38.7943C36.9007 38.7463 37.0487 38.7043 37.2247 38.6683C37.4007 38.6283 37.6047 38.6083 37.8367 38.6083C38.0367 38.6083 38.2167 38.6263 38.3767 38.6623C38.5367 38.6983 38.6727 38.7523 38.7847 38.8243C38.8967 38.8963 38.9827 38.9903 39.0427 39.1063C39.1027 39.2183 39.1327 39.3543 39.1327 39.5143V41.4223C39.1327 41.4743 39.1487 41.5143 39.1807 41.5423C39.2127 41.5703 39.2607 41.5943 39.3247 41.6143C39.3927 41.6303 39.4747 41.6483 39.5707 41.6683L39.6307 41.6803V42.0703H38.5927ZM40.8352 38.0983C40.6872 38.0983 40.5692 38.0623 40.4812 37.9903C40.3972 37.9183 40.3552 37.8043 40.3552 37.6483C40.3552 37.5003 40.3972 37.3903 40.4812 37.3183C40.5692 37.2463 40.6872 37.2103 40.8352 37.2103C40.9752 37.2103 41.0892 37.2463 41.1772 37.3183C41.2652 37.3903 41.3092 37.5003 41.3092 37.6483C41.3092 37.8043 41.2652 37.9183 41.1772 37.9903C41.0892 38.0623 40.9752 38.0983 40.8352 38.0983ZM41.2312 38.6743V41.3383C41.2312 41.4943 41.2712 41.6003 41.3512 41.6563C41.4352 41.7083 41.5532 41.7343 41.7052 41.7343H41.7352V42.0703H40.0492V41.7343H40.0792C40.2312 41.7343 40.3472 41.7083 40.4272 41.6563C40.5072 41.6003 40.5472 41.4943 40.5472 41.3383V39.3283C40.5472 39.2483 40.5112 39.1943 40.4392 39.1663C40.3672 39.1383 40.2572 39.1103 40.1092 39.0823L40.0492 39.0703V38.6743H41.2312ZM42.1995 42.0703V41.7343H42.2235C42.3235 41.7343 42.4095 41.7223 42.4815 41.6983C42.5535 41.6703 42.6075 41.6243 42.6435 41.5603C42.6795 41.4963 42.6975 41.4063 42.6975 41.2903V39.3283C42.6975 39.2723 42.6795 39.2303 42.6435 39.2023C42.6115 39.1743 42.5635 39.1523 42.4995 39.1363C42.4355 39.1163 42.3555 39.0983 42.2595 39.0823L42.1995 39.0703V38.6743H43.2375L43.3875 39.4243V39.4363V41.6743C43.3875 41.6863 43.4095 41.6983 43.4535 41.7103C43.4975 41.7183 43.5495 41.7243 43.6095 41.7283C43.6695 41.7323 43.7255 41.7343 43.7775 41.7343H43.8075V42.0703H42.1995ZM46.0515 42.0703H44.4495V41.7343H44.4795C44.5275 41.7343 44.5815 41.7323 44.6415 41.7283C44.7055 41.7243 44.7575 41.7183 44.7975 41.7103C44.8415 41.6983 44.8635 41.6863 44.8635 41.6743V39.5503C44.8635 39.4503 44.8475 39.3683 44.8155 39.3043C44.7875 39.2363 44.7375 39.1843 44.6655 39.1483C44.5975 39.1123 44.5035 39.0943 44.3835 39.0943C44.2635 39.0943 44.1415 39.1203 44.0175 39.1723C43.8975 39.2243 43.7735 39.3043 43.6455 39.4123C43.5215 39.5163 43.3915 39.6543 43.2555 39.8263L43.2615 39.5443C43.3775 39.3523 43.5095 39.1863 43.6575 39.0463C43.8055 38.9063 43.9635 38.7983 44.1315 38.7223C44.2995 38.6423 44.4775 38.6023 44.6655 38.6023C44.8655 38.6023 45.0295 38.6363 45.1575 38.7043C45.2895 38.7723 45.3895 38.8723 45.4575 39.0043C45.5255 39.1323 45.5595 39.2903 45.5595 39.4783V41.2903C45.5595 41.4063 45.5775 41.4963 45.6135 41.5603C45.6495 41.6243 45.7015 41.6703 45.7695 41.6983C45.8415 41.7223 45.9275 41.7343 46.0275 41.7343H46.0515V42.0703ZM14.2548 47.2243V46.8103H16.2348C16.5908 46.8103 16.9088 46.8523 17.1888 46.9363C17.4688 47.0203 17.7068 47.1503 17.9028 47.3263C18.1028 47.4983 18.2528 47.7163 18.3528 47.9803C18.4568 48.2443 18.5088 48.5563 18.5088 48.9163C18.5088 49.2723 18.4568 49.5863 18.3528 49.8583C18.2528 50.1263 18.1028 50.3503 17.9028 50.5303C17.7068 50.7103 17.4688 50.8463 17.1888 50.9383C16.9088 51.0263 16.5908 51.0703 16.2348 51.0703H14.2548V50.6563H14.3208C14.4568 50.6563 14.5688 50.6423 14.6568 50.6143C14.7448 50.5863 14.7888 50.5283 14.7888 50.4403V47.4403C14.7888 47.3523 14.7448 47.2943 14.6568 47.2663C14.5688 47.2383 14.4568 47.2243 14.3208 47.2243H14.2548ZM16.1928 47.2243H15.5148V50.6563H16.1928C16.4568 50.6563 16.6848 50.6223 16.8768 50.5543C17.0728 50.4863 17.2328 50.3823 17.3568 50.2423C17.4848 50.0983 17.5788 49.9163 17.6388 49.6963C17.7028 49.4763 17.7348 49.2163 17.7348 48.9163C17.7348 48.6163 17.7028 48.3583 17.6388 48.1423C17.5788 47.9263 17.4848 47.7523 17.3568 47.6203C17.2328 47.4843 17.0728 47.3843 16.8768 47.3203C16.6848 47.2563 16.4568 47.2243 16.1928 47.2243ZM21.9658 47.9863L21.0238 51.1303H20.2558L19.5598 48.4123C19.5358 48.3203 19.4998 48.2503 19.4518 48.2023C19.4078 48.1543 19.3538 48.1223 19.2898 48.1063C19.2258 48.0863 19.1478 48.0763 19.0558 48.0763H19.0138V47.6743H20.6578V48.0703H20.6098C20.5258 48.0703 20.4498 48.0723 20.3818 48.0763C20.3138 48.0763 20.2578 48.0803 20.2138 48.0883C20.1738 48.0923 20.1538 48.1023 20.1538 48.1183L20.8438 50.9083L20.7238 50.7283L21.6178 47.6743H22.3318L23.2078 50.9083L23.1118 50.7283L23.7718 48.2023C23.7718 48.1783 23.7498 48.1563 23.7058 48.1363C23.6658 48.1163 23.6138 48.1003 23.5498 48.0883C23.4858 48.0763 23.4138 48.0703 23.3338 48.0703H23.2918V47.6743H24.7198V48.0763H24.6718C24.5838 48.0763 24.5078 48.0863 24.4438 48.1063C24.3798 48.1263 24.3258 48.1623 24.2818 48.2143C24.2418 48.2623 24.2078 48.3343 24.1798 48.4303L23.4118 51.1303H22.6438L21.7858 48.0403L21.9658 47.9863ZM25.7308 49.4083C25.7308 49.6723 25.7568 49.8903 25.8088 50.0623C25.8648 50.2303 25.9408 50.3623 26.0368 50.4583C26.1368 50.5543 26.2528 50.6223 26.3848 50.6623C26.5208 50.6983 26.6688 50.7163 26.8288 50.7163C26.9968 50.7163 27.1428 50.6923 27.2668 50.6443C27.3948 50.5963 27.5048 50.5283 27.5968 50.4403C27.6928 50.3523 27.7768 50.2523 27.8488 50.1403L28.1848 50.3803C28.1048 50.5363 27.9948 50.6743 27.8548 50.7943C27.7188 50.9103 27.5608 50.9983 27.3808 51.0583C27.2008 51.1183 27.0028 51.1483 26.7868 51.1483C26.4468 51.1483 26.1448 51.0843 25.8808 50.9563C25.6208 50.8283 25.4148 50.6343 25.2628 50.3743C25.1148 50.1143 25.0408 49.7923 25.0408 49.4083C25.0408 49.0443 25.1068 48.7283 25.2388 48.4603C25.3748 48.1923 25.5648 47.9843 25.8088 47.8363C26.0568 47.6843 26.3468 47.6083 26.6788 47.6083C26.9388 47.6083 27.1608 47.6503 27.3448 47.7343C27.5328 47.8143 27.6868 47.9363 27.8068 48.1003C27.9308 48.2603 28.0228 48.4603 28.0828 48.7003C28.1428 48.9403 28.1748 49.2223 28.1788 49.5463H25.5028V49.1683H27.6508L27.5128 49.3063C27.5008 49.0543 27.4788 48.8463 27.4468 48.6823C27.4148 48.5143 27.3668 48.3823 27.3028 48.2863C27.2428 48.1903 27.1608 48.1243 27.0568 48.0883C26.9568 48.0483 26.8308 48.0283 26.6788 48.0283C26.5308 48.0283 26.3968 48.0523 26.2768 48.1003C26.1608 48.1483 26.0628 48.2263 25.9828 48.3343C25.9028 48.4383 25.8408 48.5803 25.7968 48.7603C25.7528 48.9363 25.7308 49.1523 25.7308 49.4083ZM29.909 46.3903V50.3383C29.909 50.4943 29.949 50.6003 30.029 50.6563C30.109 50.7083 30.225 50.7343 30.377 50.7343H30.407V51.0703H28.721V50.7343H28.751C28.903 50.7343 29.019 50.7083 29.099 50.6563C29.183 50.6003 29.225 50.4943 29.225 50.3383V47.0383C29.225 46.9823 29.207 46.9423 29.171 46.9183C29.139 46.8903 29.089 46.8663 29.021 46.8463C28.957 46.8263 28.877 46.8083 28.781 46.7923L28.721 46.7803V46.3903H29.909ZM32.1004 46.3903V50.3383C32.1004 50.4943 32.1404 50.6003 32.2204 50.6563C32.3004 50.7083 32.4164 50.7343 32.5684 50.7343H32.5984V51.0703H30.9124V50.7343H30.9424C31.0944 50.7343 31.2104 50.7083 31.2904 50.6563C31.3744 50.6003 31.4164 50.4943 31.4164 50.3383V47.0383C31.4164 46.9823 31.3984 46.9423 31.3624 46.9183C31.3304 46.8903 31.2804 46.8663 31.2124 46.8463C31.1484 46.8263 31.0684 46.8083 30.9724 46.7923L30.9124 46.7803V46.3903H32.1004ZM33.8479 47.0983C33.6999 47.0983 33.5819 47.0623 33.4939 46.9903C33.4099 46.9183 33.3679 46.8043 33.3679 46.6483C33.3679 46.5003 33.4099 46.3903 33.4939 46.3183C33.5819 46.2463 33.6999 46.2103 33.8479 46.2103C33.9879 46.2103 34.1019 46.2463 34.1899 46.3183C34.2779 46.3903 34.3219 46.5003 34.3219 46.6483C34.3219 46.8043 34.2779 46.9183 34.1899 46.9903C34.1019 47.0623 33.9879 47.0983 33.8479 47.0983ZM34.2439 47.6743V50.3383C34.2439 50.4943 34.2839 50.6003 34.3639 50.6563C34.4479 50.7083 34.5659 50.7343 34.7179 50.7343H34.7479V51.0703H33.0619V50.7343H33.0919C33.2439 50.7343 33.3599 50.7083 33.4399 50.6563C33.5199 50.6003 33.5599 50.4943 33.5599 50.3383V48.3283C33.5599 48.2483 33.5239 48.1943 33.4519 48.1663C33.3799 48.1383 33.2699 48.1103 33.1219 48.0823L33.0619 48.0703V47.6743H34.2439ZM35.2122 51.0703V50.7343H35.2362C35.3362 50.7343 35.4222 50.7223 35.4942 50.6983C35.5662 50.6703 35.6202 50.6243 35.6562 50.5603C35.6922 50.4963 35.7102 50.4063 35.7102 50.2903V48.3283C35.7102 48.2723 35.6922 48.2303 35.6562 48.2023C35.6242 48.1743 35.5762 48.1523 35.5122 48.1363C35.4482 48.1163 35.3682 48.0983 35.2722 48.0823L35.2122 48.0703V47.6743H36.2502L36.4002 48.4243V48.4363V50.6743C36.4002 50.6863 36.4222 50.6983 36.4662 50.7103C36.5102 50.7183 36.5622 50.7243 36.6222 50.7283C36.6822 50.7323 36.7382 50.7343 36.7902 50.7343H36.8202V51.0703H35.2122ZM39.0642 51.0703H37.4622V50.7343H37.4922C37.5402 50.7343 37.5942 50.7323 37.6542 50.7283C37.7182 50.7243 37.7702 50.7183 37.8102 50.7103C37.8542 50.6983 37.8762 50.6863 37.8762 50.6743V48.5503C37.8762 48.4503 37.8602 48.3683 37.8282 48.3043C37.8002 48.2363 37.7502 48.1843 37.6782 48.1483C37.6102 48.1123 37.5162 48.0943 37.3962 48.0943C37.2762 48.0943 37.1542 48.1203 37.0302 48.1723C36.9102 48.2243 36.7862 48.3043 36.6582 48.4123C36.5342 48.5163 36.4042 48.6543 36.2682 48.8263L36.2742 48.5443C36.3902 48.3523 36.5222 48.1863 36.6702 48.0463C36.8182 47.9063 36.9762 47.7983 37.1442 47.7223C37.3122 47.6423 37.4902 47.6023 37.6782 47.6023C37.8782 47.6023 38.0422 47.6363 38.1702 47.7043C38.3022 47.7723 38.4022 47.8723 38.4702 48.0043C38.5382 48.1323 38.5722 48.2903 38.5722 48.4783V50.2903C38.5722 50.4063 38.5902 50.4963 38.6262 50.5603C38.6622 50.6243 38.7142 50.6703 38.7822 50.6983C38.8542 50.7223 38.9402 50.7343 39.0402 50.7343H39.0642V51.0703ZM43.3832 48.0523C43.1992 48.0443 43.0412 48.0403 42.9092 48.0403C42.7772 48.0403 42.6632 48.0463 42.5672 48.0583C42.4712 48.0663 42.3792 48.0783 42.2912 48.0943L42.1832 48.1483C42.2352 48.0083 42.2952 47.8863 42.3632 47.7823C42.4312 47.6783 42.5112 47.5943 42.6032 47.5303C42.6992 47.4663 42.8092 47.4223 42.9332 47.3983C43.0612 47.3743 43.2112 47.3683 43.3832 47.3803V48.0523ZM41.2232 50.0023C40.9432 50.0023 40.6972 49.9543 40.4852 49.8583C40.2772 49.7583 40.1152 49.6203 39.9992 49.4443C39.8872 49.2643 39.8312 49.0543 39.8312 48.8143C39.8312 48.5743 39.8892 48.3643 40.0052 48.1843C40.1212 48.0003 40.2832 47.8583 40.4912 47.7583C40.7032 47.6583 40.9472 47.6083 41.2232 47.6083C41.5032 47.6083 41.7472 47.6583 41.9552 47.7583C42.1672 47.8583 42.3312 48.0003 42.4472 48.1843C42.5632 48.3643 42.6212 48.5743 42.6212 48.8143C42.6212 49.0543 42.5632 49.2643 42.4472 49.4443C42.3312 49.6203 42.1692 49.7583 41.9612 49.8583C41.7532 49.9543 41.5072 50.0023 41.2232 50.0023ZM41.2232 49.6183C41.3912 49.6183 41.5272 49.5903 41.6312 49.5343C41.7392 49.4743 41.8172 49.3843 41.8652 49.2643C41.9172 49.1443 41.9432 48.9943 41.9432 48.8143C41.9432 48.6303 41.9172 48.4783 41.8652 48.3583C41.8172 48.2383 41.7392 48.1483 41.6312 48.0883C41.5272 48.0283 41.3912 47.9983 41.2232 47.9983C41.0592 47.9983 40.9232 48.0283 40.8152 48.0883C40.7112 48.1483 40.6332 48.2383 40.5812 48.3583C40.5332 48.4783 40.5092 48.6303 40.5092 48.8143C40.5092 48.9943 40.5332 49.1443 40.5812 49.2643C40.6332 49.3843 40.7112 49.4743 40.8152 49.5343C40.9232 49.5903 41.0592 49.6183 41.2232 49.6183ZM40.6652 52.5883C40.4092 52.5883 40.1912 52.5643 40.0112 52.5163C39.8312 52.4683 39.6932 52.3923 39.5972 52.2883C39.5012 52.1883 39.4532 52.0583 39.4532 51.8983C39.4532 51.7623 39.4812 51.6463 39.5372 51.5503C39.5972 51.4543 39.6872 51.3663 39.8072 51.2863C39.9312 51.2063 40.0892 51.1243 40.2812 51.0403L40.4192 51.1183C40.3192 51.2023 40.2412 51.2783 40.1852 51.3463C40.1332 51.4183 40.0972 51.4883 40.0772 51.5563C40.0572 51.6243 40.0472 51.6963 40.0472 51.7723C40.0472 51.8643 40.0672 51.9403 40.1072 52.0003C40.1512 52.0643 40.2232 52.1123 40.3232 52.1443C40.4272 52.1803 40.5732 52.1983 40.7612 52.1983H41.6492C41.8572 52.1983 42.0232 52.1763 42.1472 52.1323C42.2752 52.0923 42.3692 52.0283 42.4292 51.9403C42.4932 51.8523 42.5252 51.7383 42.5252 51.5983C42.5252 51.4863 42.4932 51.3983 42.4292 51.3343C42.3652 51.2743 42.2592 51.2443 42.1112 51.2443H40.5272L40.5692 51.2203C40.3732 51.2163 40.2072 51.1883 40.0712 51.1363C39.9352 51.0883 39.8332 51.0183 39.7652 50.9263C39.6972 50.8303 39.6632 50.7163 39.6632 50.5843C39.6632 50.4603 39.6952 50.3463 39.7592 50.2423C39.8232 50.1383 39.9132 50.0443 40.0292 49.9603C40.1492 49.8723 40.2852 49.7923 40.4372 49.7203L40.5992 49.8103C40.5112 49.8863 40.4412 49.9543 40.3892 50.0143C40.3412 50.0743 40.3052 50.1303 40.2812 50.1823C40.2572 50.2303 40.2452 50.2843 40.2452 50.3443C40.2452 50.4403 40.2772 50.5103 40.3412 50.5543C40.4052 50.5983 40.5052 50.6203 40.6412 50.6203H42.1472C42.3592 50.6203 42.5372 50.6503 42.6812 50.7103C42.8292 50.7703 42.9412 50.8623 43.0172 50.9863C43.0972 51.1103 43.1372 51.2723 43.1372 51.4723C43.1372 51.7243 43.0732 51.9323 42.9452 52.0963C42.8172 52.2603 42.6412 52.3823 42.4172 52.4623C42.1972 52.5463 41.9472 52.5883 41.6672 52.5883H40.6652ZM45.9095 50.1883C45.9095 50.0843 45.8855 49.9983 45.8375 49.9303C45.7895 49.8623 45.7235 49.8083 45.6395 49.7683C45.5555 49.7283 45.4595 49.6963 45.3515 49.6723C45.2475 49.6443 45.1395 49.6183 45.0275 49.5943C44.8835 49.5663 44.7435 49.5323 44.6075 49.4923C44.4715 49.4483 44.3475 49.3923 44.2355 49.3243C44.1275 49.2523 44.0415 49.1583 43.9775 49.0423C43.9135 48.9223 43.8815 48.7743 43.8815 48.5983C43.8815 48.3863 43.9335 48.2083 44.0375 48.0643C44.1415 47.9163 44.2935 47.8043 44.4935 47.7283C44.6935 47.6483 44.9315 47.6083 45.2075 47.6083C45.4275 47.6083 45.6175 47.6183 45.7775 47.6383C45.9415 47.6583 46.0755 47.6823 46.1795 47.7103C46.2875 47.7343 46.3655 47.7543 46.4135 47.7703V48.6223H45.8015V47.9563C45.8455 47.9523 45.8835 47.9563 45.9155 47.9683C45.9475 47.9763 45.9715 47.9903 45.9875 48.0103C46.0075 48.0303 46.0235 48.0583 46.0355 48.0943C46.0475 48.1263 46.0535 48.1623 46.0535 48.2023C46.0015 48.1623 45.9335 48.1283 45.8495 48.1003C45.7655 48.0723 45.6695 48.0523 45.5615 48.0403C45.4535 48.0243 45.3355 48.0163 45.2075 48.0163C44.9595 48.0163 44.7795 48.0563 44.6675 48.1363C44.5595 48.2123 44.5055 48.3283 44.5055 48.4843C44.5055 48.5843 44.5275 48.6663 44.5715 48.7303C44.6155 48.7943 44.6775 48.8463 44.7575 48.8863C44.8415 48.9263 44.9375 48.9603 45.0455 48.9883C45.1535 49.0123 45.2715 49.0383 45.3995 49.0663C45.5395 49.0943 45.6775 49.1303 45.8135 49.1743C45.9535 49.2143 46.0795 49.2723 46.1915 49.3483C46.3035 49.4203 46.3935 49.5163 46.4615 49.6363C46.5295 49.7523 46.5635 49.9003 46.5635 50.0803C46.5635 50.3003 46.5115 50.4923 46.4075 50.6563C46.3035 50.8163 46.1455 50.9383 45.9335 51.0223C45.7215 51.1063 45.4535 51.1483 45.1295 51.1483C44.9135 51.1483 44.7195 51.1363 44.5475 51.1123C44.3795 51.0883 44.2335 51.0563 44.1095 51.0163C43.9855 50.9763 43.8855 50.9343 43.8095 50.8903V50.0023H44.4335V50.8783C44.3655 50.8583 44.3115 50.8343 44.2715 50.8063C44.2355 50.7743 44.2095 50.7423 44.1935 50.7103C44.1775 50.6783 44.1695 50.6483 44.1695 50.6203C44.1695 50.5883 44.1755 50.5623 44.1875 50.5423C44.2395 50.5663 44.3115 50.5943 44.4035 50.6263C44.4955 50.6583 44.6035 50.6863 44.7275 50.7103C44.8515 50.7343 44.9875 50.7463 45.1355 50.7463C45.3195 50.7463 45.4675 50.7283 45.5795 50.6923C45.6955 50.6523 45.7795 50.5923 45.8315 50.5123C45.8835 50.4283 45.9095 50.3203 45.9095 50.1883Z" fill="#14F800" fill-opacity="0.7"/>
<path d="M21.0499 3.07031L18.7751 10.1145L21.2074 13.2678L22.5985 11.1984L25.8795 13.3733L27.4106 9.46695L21.0499 3.07031ZM35.8974 6.14616L33.0802 9.55141L34.0163 11.3462L35.9324 9.81887L37.516 12.8314L38.4172 11.304L35.8974 6.14616ZM28.6005 10.6635L26.6844 15.5412L23.071 13.1551L21.3124 15.7876L18.2326 11.7967L10.5 35.6855H21.5661C25.5558 34.489 33.4039 31.6947 33.5701 28.2036C33.7189 24.8391 24.0421 25.1488 23.8759 21.7844C23.7447 19.0323 31.2691 16.048 31.2691 16.048C31.2691 16.048 26.5357 19.0957 27.1219 21.0454C28.2506 24.7758 38.111 22.988 39.6509 26.6269C40.7883 29.3157 36.7199 33.9681 35.0837 35.6855H50.325L39.2047 12.9229L37.4461 15.9283L35.39 12.029L33.4564 13.5704L32.0302 10.8183L30.5429 12.6132L28.6005 10.6635Z" fill="#14F800" fill-opacity="0.7"/>
</g>
<defs>
<clipPath id="clip0_635_22">
<rect width="49.7812" height="47.6006" fill="white" transform="translate(5.10938 3.2832)"/>
</clipPath>
</defs>
</svg>
